<?xml version="1.0" encoding="UTF-8" standalone="no"?>
<!-- Created with Inkscape (http://www.inkscape.org/) -->

<svg
   width="100"
   height="100"
   viewBox="0 0 26.458333 26.458334"
   version="1.1"
   id="svg5"
   xmlns="http://www.w3.org/2000/svg"
   xmlns:svg="http://www.w3.org/2000/svg">
  <defs
     id="defs2" />
  <g
     id="layer1">
    <path
       id="path135-5"
       style="fill:none;fill-opacity:1;stroke:#000000;stroke-width:3.00000004;stroke-miterlimit:4;stroke-dasharray:none;stroke-opacity:1;paint-order:markers fill stroke"
       d="M 49.886719 9.9023438 A 36.335442 35.425325 0 0 0 14.474609 37.400391 C 14.478522 42.807101 15.31857 48.214108 16.990234 51.972656 C 17.923153 54.07023 19.055933 56.074025 20.371094 57.957031 C 23.555353 62.516155 27.399483 68.635393 29.556641 74.681641 A 36.335442 35.425325 0 0 0 49.886719 80.751953 A 36.335442 35.425325 0 0 0 70.488281 74.501953 C 72.653356 68.530232 76.465991 62.485585 79.628906 57.957031 C 80.944068 56.074025 82.076846 54.070222 83.009766 51.972656 C 84.580621 48.440763 85.415277 43.45204 85.513672 38.376953 A 36.335442 35.425325 0 0 0 49.886719 9.9023438 z "
       transform="scale(0.26458333)" />
    <path
       id="path135-5-6"
       style="fill:none;fill-opacity:1;stroke:#000000;stroke-width:0.79375;stroke-miterlimit:4;stroke-dasharray:none;stroke-opacity:1;paint-order:markers fill stroke"
       d="M 13.173356,4.5511434 A 9.6137522,9.3729505 0 0 0 3.9671998,11.232906 c 0.1092369,0.760019 0.2885212,1.459213 0.5379516,2.020032 0.2468345,0.554982 0.546549,1.08567 0.8945189,1.583882 1.2460377,1.784038 2.8747598,4.470762 2.8747601,6.662642 a 3.9533853,3.9533853 0 0 0 0.035656,0.506946 9.6137522,9.3729505 0 0 0 4.8632696,1.290878 9.6137522,9.3729505 0 0 0 5.002277,-1.375627 3.96875,3.96875 0 0 0 0.02739,-0.452686 c 0,-2.174911 1.629241,-4.848121 2.875277,-6.632153 0.34797,-0.498211 0.647685,-1.028901 0.894519,-1.583882 0.217623,-0.489303 0.381037,-1.084175 0.49196,-1.732711 A 9.6137522,9.3729505 0 0 0 13.173356,4.5511434 Z" />
    <ellipse
       style="fill:#ffffff;fill-opacity:1;stroke:#000000;stroke-width:0.79375;stroke-miterlimit:4;stroke-dasharray:none;stroke-opacity:1;paint-order:markers fill stroke"
       id="path1527"
       cx="13.229166"
       cy="9.7698259"
       rx="9.6137524"
       ry="9.3729506" />
    <path
       id="path135"
       style="fill:none;fill-opacity:1;stroke:#000000;stroke-width:1.90645;stroke-miterlimit:4;stroke-dasharray:none;stroke-opacity:1;paint-order:markers fill stroke"
       d="M 9.3865892,1.64723 C 7.4292195,2.5678243 5.8492726,4.169923 4.9455157,6.1516765 c -0.9025282,1.9790592 -0.8980924,5.7192015 0.0049,7.6981395 0.2027007,0.444223 0.4401094,0.871501 0.7098984,1.277655 1.203305,1.811515 2.8319687,4.512865 2.8319687,6.704745 a 3.8252867,3.8252867 42.808752 0 0 3.96875,3.676229 l 1.536257,0 a 3.96875,3.96875 135 0 0 3.96875,-3.96875 c 0,-2.030359 1.628658,-4.600706 2.831961,-6.412213 0.269789,-0.406153 0.507198,-0.833431 0.7099,-1.277654 0.903002,-1.978943 0.907437,-5.7190965 0.0049,-7.6981589 C 20.609052,4.1699166 19.029104,2.5678193 17.071733,1.6472267 15.104277,0.72189069 11.354048,0.72189045 9.3865892,1.64723 Z" />
  </g>
</svg>
